<svg xmlns="http://www.w3.org/2000/svg" viewBox="0 0 1440 320"><path fill="#303952" fill-opacity="1" d="M0,160L30,181.3C60,203,120,245,180,266.7C240,288,300,288,360,272C420,256,480,224,540,218.7C600,213,660,235,720,234.7C780,235,840,213,900,176C960,139,1020,85,1080,90.7C1140,96,1200,160,1260,197.3C1320,235,1380,245,1410,250.7L1440,256L1440,320L1410,320C1380,320,1320,320,1260,320C1200,320,1140,320,1080,320C1020,320,960,320,900,320C840,320,780,320,720,320C660,320,600,320,540,320C480,320,420,320,360,320C300,320,240,320,180,320C120,320,60,320,30,320L0,320Z"></path></svg>